RobotoSerifMicro-SuperWideItalic.ufo
<glyph name="plus" format="2">
  <advance width="686"/>
  <unicode hex="002B"/>
  <outline>
    <contour>
      <point x="327" y="579" type="line"/>
      <point x="175" y="81" type="line"/>
      <point x="355" y="81" type="line"/>
      <point x="506" y="579" type="line"/>
    </contour>
    <contour>
      <point x="656" y="406" type="line"/>
      <point x="69" y="406" type="line"/>
      <point x="26" y="254" type="line"/>
      <point x="613" y="254" type="line"/>
    </contour>
  </outline>
</glyph>
<glyph name="four" format="2">
  <advance width="686"/>
  <unicode hex="0034"/>
  <outline>
    <contour>
      <point x="-27" y="114" type="line"/>
      <point x="605" y="114" type="line"/>
      <point x="649" y="271" type="line"/>
      <point x="100" y="271" type="line"/>
      <point x="68" y="198" type="line"/>
      <point x="461" y="620" type="line"/>
      <point x="475" y="670" type="line"/>
      <point x="381" y="670" type="line"/>
      <point x="23" y="291" type="line"/>
    </contour>
    <contour>
      <point x="472" y="-47" type="line"/>
      <point x="691" y="670" type="line"/>
      <point x="446" y="670" type="line"/>
      <point x="447" y="644" type="line"/>
      <point x="235" y="-47" type="line"/>
    </contour>
  </outline>
</glyph>
<glyph name="at" format="2">
  <advance width="1271"/>
  <unicode hex="0040"/>
  <outline>
    <contour>
      <point x="560" y="-168" type="curve" smooth="yes"/>
      <point x="682" y="-168"/>
      <point x="803" y="-148"/>
      <point x="878" y="-125" type="curve"/>
      <point x="858" y="-35" type="line"/>
      <point x="796" y="-53"/>
      <point x="686" y="-74"/>
      <point x="566" y="-74" type="curve" smooth="yes"/>
      <point x="316" y="-74"/>
      <point x="189" y="31"/>
      <point x="189" y="195" type="curve" smooth="yes"/>
      <point x="189" y="453"/>
      <point x="416" y="602"/>
      <point x="718" y="602" type="curve" smooth="yes"/>
      <point x="984" y="602"/>
      <point x="1094" y="513"/>
      <point x="1094" y="379" type="curve" smooth="yes"/>
      <point x="1094" y="256"/>
      <point x="1038" y="143"/>
      <point x="916" y="143" type="curve" smooth="yes"/>
      <point x="865" y="143"/>
      <point x="844" y="155"/>
      <point x="844" y="181" type="curve" smooth="yes"/>
      <point x="844" y="197"/>
      <point x="848" y="215"/>
      <point x="863" y="247" type="curve"/>
      <point x="974" y="475" type="line"/>
      <point x="838" y="475" type="line"/>
      <point x="768" y="400" type="line"/>
      <point x="753" y="388" type="line"/>
      <point x="644" y="158" type="line"/>
      <point x="668" y="143" type="line"/>
      <point x="712" y="89"/>
      <point x="774" y="62"/>
      <point x="881" y="62" type="curve" smooth="yes"/>
      <point x="1100" y="62"/>
      <point x="1239" y="190"/>
      <point x="1239" y="379" type="curve" smooth="yes"/>
      <point x="1239" y="565"/>
      <point x="1079" y="696"/>
      <point x="718" y="696" type="curve" smooth="yes"/>
      <point x="339" y="696"/>
      <point x="44" y="499"/>
      <point x="44" y="195" type="curve" smooth="yes"/>
      <point x="44" y="-25"/>
      <point x="217" y="-168"/>
    </contour>
    <contour>
      <point x="511" y="56" type="curve" smooth="yes"/>
      <point x="595" y="56"/>
      <point x="631" y="96"/>
      <point x="718" y="175" type="curve"/>
      <point x="683" y="212" type="line"/>
      <point x="630" y="162"/>
      <point x="598" y="128"/>
      <point x="559" y="128" type="curve" smooth="yes"/>
      <point x="531" y="128"/>
      <point x="521" y="141"/>
      <point x="521" y="165" type="curve" smooth="yes"/>
      <point x="521" y="234"/>
      <point x="580" y="409"/>
      <point x="676" y="409" type="curve" smooth="yes"/>
      <point x="719" y="409"/>
      <point x="731" y="390"/>
      <point x="735" y="347" type="curve"/>
      <point x="786" y="366" type="line"/>
      <point x="781" y="437"/>
      <point x="745" y="481"/>
      <point x="634" y="481" type="curve" smooth="yes"/>
      <point x="464" y="481"/>
      <point x="341" y="341"/>
      <point x="341" y="194" type="curve" smooth="yes"/>
      <point x="341" y="109"/>
      <point x="397" y="56"/>
    </contour>
  </outline>
</glyph>
<glyph name="U" format="2">
  <advance width="927"/>
  <unicode hex="0055"/>
  <anchor x="483" y="741" name="top"/>
  <anchor x="535" y="0" name="right"/>
  <anchor x="483" y="0" name="bottom"/>
  <outline>
    <contour>
      <point x="448" y="296" type="curve" smooth="yes"/>
      <point x="495" y="592" type="line" smooth="yes"/>
      <point x="496" y="601"/>
      <point x="514.0" y="605.0"/>
      <point x="546" y="605" type="curve" smooth="yes"/>
      <point x="564" y="605" type="line"/>
      <point x="580" y="710" type="line"/>
      <point x="159" y="710" type="line"/>
      <point x="143" y="605" type="line"/>
      <point x="168" y="605" type="line" smooth="yes"/>
      <point x="197.64705882352942" y="605.0"/>
      <point x="217" y="593"/>
      <point x="214" y="575" type="curve" smooth="yes"/>
      <point x="175" y="329" type="line" smooth="yes"/>
      <point x="167" y="281"/>
      <point x="164" y="251"/>
      <point x="164" y="219" type="curve" smooth="yes"/>
      <point x="164.0" y="48.0"/>
      <point x="304" y="-25"/>
      <point x="517" y="-25" type="curve" smooth="yes"/>
      <point x="709.0" y="-25.0"/>
      <point x="858" y="59"/>
      <point x="894" y="286" type="curve" smooth="yes"/>
      <point x="940" y="575" type="line" smooth="yes"/>
      <point x="943" y="595"/>
      <point x="965" y="605"/>
      <point x="995" y="605" type="curve" smooth="yes"/>
      <point x="1021" y="605" type="line"/>
      <point x="1037" y="710" type="line"/>
      <point x="782" y="710" type="line"/>
      <point x="766" y="605" type="line"/>
      <point x="782" y="605" type="line" smooth="yes"/>
      <point x="818.0" y="605.0"/>
      <point x="831" y="600"/>
      <point x="830" y="591" type="curve" smooth="yes"/>
      <point x="783" y="296" type="line" smooth="yes"/>
      <point x="760" y="154"/>
      <point x="695" y="101"/>
      <point x="588" y="101" type="curve" smooth="yes"/>
      <point x="496" y="101"/>
      <point x="443" y="133"/>
      <point x="443" y="230" type="curve" smooth="yes"/>
      <point x="443" y="249"/>
      <point x="444" y="271"/>
    </contour>
  </outline>
</glyph>
<glyph name="logicalnot" format="2">
  <advance width="686"/>
  <unicode hex="00AC"/>
  <outline>
    <contour>
      <point x="457" y="393" type="line"/>
      <point x="383" y="153" type="line"/>
      <point x="562" y="153" type="line"/>
      <point x="656" y="468" type="line"/>
      <point x="99" y="468" type="line"/>
      <point x="54" y="309" type="line"/>
      <point x="587" y="309" type="line"/>
    </contour>
  </outline>
</glyph>
<glyph name="eth" format="2">
  <advance width="888"/>
  <unicode hex="00F0"/>
  <outline>
    <contour>
      <point x="401" y="-15" type="curve" smooth="yes"/>
      <point x="707" y="-15"/>
      <point x="848" y="159"/>
      <point x="848" y="427" type="curve" smooth="yes"/>
      <point x="848" y="621"/>
      <point x="711" y="771"/>
      <point x="344" y="832" type="curve"/>
      <point x="290" y="739" type="line"/>
      <point x="533" y="684"/>
      <point x="591" y="641"/>
      <point x="591" y="510" type="curve" smooth="yes"/>
      <point x="591" y="447"/>
      <point x="577" y="383"/>
      <point x="553" y="299" type="curve" smooth="yes"/>
      <point x="502" y="124"/>
      <point x="476" y="91"/>
      <point x="391" y="91" type="curve" smooth="yes"/>
      <point x="322" y="91"/>
      <point x="293" y="114"/>
      <point x="293" y="153" type="curve" smooth="yes"/>
      <point x="293" y="192"/>
      <point x="301" y="226"/>
      <point x="308" y="252" type="curve" smooth="yes"/>
      <point x="338" y="357"/>
      <point x="371" y="449"/>
      <point x="468" y="449" type="curve" smooth="yes"/>
      <point x="539" y="449"/>
      <point x="570" y="412"/>
      <point x="587" y="326" type="curve"/>
      <point x="608" y="415" type="line"/>
      <point x="582" y="513"/>
      <point x="529" y="557"/>
      <point x="396" y="557" type="curve" smooth="yes"/>
      <point x="172" y="557"/>
      <point x="42" y="412"/>
      <point x="42" y="225" type="curve" smooth="yes"/>
      <point x="42" y="81"/>
      <point x="166" y="-15"/>
    </contour>
    <contour>
      <point x="195" y="657" type="line"/>
      <point x="208" y="578" type="line"/>
      <point x="914" y="701" type="line"/>
      <point x="901" y="783" type="line"/>
    </contour>
  </outline>
</glyph>
<glyph name="Uogonek" format="2">
  <advance width="927"/>
  <unicode hex="0172"/>
  <outline>
    <contour>
      <point x="437" y="-252" type="curve" smooth="yes"/>
      <point x="539" y="-252"/>
      <point x="605" y="-228"/>
      <point x="655" y="-189" type="curve"/>
      <point x="611" y="-131" type="line"/>
      <point x="586" y="-147"/>
      <point x="549" y="-170"/>
      <point x="505" y="-170" type="curve" smooth="yes"/>
      <point x="467" y="-170"/>
      <point x="447" y="-158"/>
      <point x="447" y="-125" type="curve" smooth="yes"/>
      <point x="447" y="-61"/>
      <point x="587" y="-23"/>
      <point x="682" y="51" type="curve" smooth="yes"/>
      <point x="731" y="88"/>
      <point x="774" y="154"/>
      <point x="799" y="234" type="curve" smooth="yes"/>
      <point x="903" y="576" type="line" smooth="yes"/>
      <point x="911" y="604"/>
      <point x="938" y="610"/>
      <point x="975" y="610" type="curve" smooth="yes"/>
      <point x="987" y="610" type="line"/>
      <point x="1018" y="710" type="line"/>
      <point x="742" y="710" type="line"/>
      <point x="711" y="610" type="line"/>
      <point x="728" y="610" type="line" smooth="yes"/>
      <point x="763" y="610"/>
      <point x="798" y="605"/>
      <point x="794" y="593" type="curve" smooth="yes"/>
      <point x="691" y="257" type="line" smooth="yes"/>
      <point x="653" y="140"/>
      <point x="596" y="91"/>
      <point x="485" y="91" type="curve" smooth="yes"/>
      <point x="387" y="91"/>
      <point x="349" y="121"/>
      <point x="349" y="172" type="curve" smooth="yes"/>
      <point x="349" y="197"/>
      <point x="354" y="224"/>
      <point x="372" y="280" type="curve" smooth="yes"/>
      <point x="468" y="600" type="line" smooth="yes"/>
      <point x="470" y="607"/>
      <point x="506" y="610"/>
      <point x="532" y="610" type="curve" smooth="yes"/>
      <point x="548" y="610" type="line"/>
      <point x="578" y="710" type="line"/>
      <point x="145" y="710" type="line"/>
      <point x="115" y="610" type="line"/>
      <point x="128" y="610" type="line" smooth="yes"/>
      <point x="164" y="610"/>
      <point x="188" y="603"/>
      <point x="180" y="574" type="curve" smooth="yes"/>
      <point x="103" y="318" type="line" smooth="yes"/>
      <point x="85" y="264"/>
      <point x="78" y="223"/>
      <point x="78" y="189" type="curve" smooth="yes"/>
      <point x="78" y="45"/>
      <point x="215" y="-25"/>
      <point x="426" y="-25" type="curve" smooth="yes"/>
      <point x="480" y="-25"/>
      <point x="528" y="-19"/>
      <point x="571" y="-5" type="curve"/>
      <point x="572" y="20" type="line"/>
      <point x="295" y="-56"/>
      <point x="224" y="-79"/>
      <point x="224" y="-153" type="curve" smooth="yes"/>
      <point x="224" y="-222"/>
      <point x="299" y="-252"/>
    </contour>
  </outline>
</glyph>
<glyph name="Schwa" format="2">
  <advance width="967"/>
  <unicode hex="018F"/>
  <outline>
    <contour>
      <point x="421" y="-24" type="curve" smooth="yes"/>
      <point x="750" y="-24"/>
      <point x="939" y="171"/>
      <point x="939" y="440" type="curve" smooth="yes"/>
      <point x="939" y="628"/>
      <point x="810" y="734"/>
      <point x="530" y="734" type="curve" smooth="yes"/>
      <point x="357" y="734"/>
      <point x="251" y="684"/>
      <point x="152" y="593" type="curve"/>
      <point x="253" y="515" type="line"/>
      <point x="332" y="589"/>
      <point x="398" y="626"/>
      <point x="504" y="626" type="curve" smooth="yes"/>
      <point x="627" y="626"/>
      <point x="664" y="577"/>
      <point x="664" y="502" type="curve" smooth="yes"/>
      <point x="664" y="372"/>
      <point x="595" y="84"/>
      <point x="416" y="84" type="curve" smooth="yes"/>
      <point x="339" y="84"/>
      <point x="308" y="120"/>
      <point x="308" y="175" type="curve" smooth="yes"/>
      <point x="308" y="222"/>
      <point x="320" y="282"/>
      <point x="344" y="362" type="curve"/>
      <point x="308" y="307" type="line"/>
      <point x="752" y="307" type="line"/>
      <point x="779" y="401" type="line"/>
      <point x="85" y="401" type="line"/>
      <point x="62" y="339"/>
      <point x="50" y="273"/>
      <point x="50" y="219" type="curve" smooth="yes"/>
      <point x="50" y="70"/>
      <point x="156" y="-24"/>
    </contour>
  </outline>
</glyph>
<glyph name="ring" format="2">
  <advance width="613"/>
  <unicode hex="02DA"/>
  <anchor x="308" y="526" name="_top"/>
  <outline>
    <contour>
      <point x="315" y="693" type="curve" smooth="yes"/>
      <point x="257" y="693"/>
      <point x="231" y="716"/>
      <point x="231" y="750" type="curve" smooth="yes"/>
      <point x="231" y="786"/>
      <point x="253" y="827"/>
      <point x="319" y="827" type="curve" smooth="yes"/>
      <point x="376" y="827"/>
      <point x="403" y="805"/>
      <point x="403" y="770" type="curve" smooth="yes"/>
      <point x="403" y="734"/>
      <point x="381" y="693"/>
    </contour>
    <contour>
      <point x="310" y="610" type="curve" smooth="yes"/>
      <point x="447" y="610"/>
      <point x="533" y="678"/>
      <point x="533" y="769" type="curve" smooth="yes"/>
      <point x="533" y="854"/>
      <point x="456" y="910"/>
      <point x="323" y="910" type="curve" smooth="yes"/>
      <point x="187" y="910"/>
      <point x="100" y="842"/>
      <point x="100" y="751" type="curve" smooth="yes"/>
      <point x="100" y="666"/>
      <point x="177" y="610"/>
    </contour>
  </outline>
</glyph>
<glyph name="Germandbls" format="2">
  <advance width="1129"/>
  <unicode hex="1E9E"/>
  <outline>
    <contour>
      <point x="587" y="217" type="curve"/>
      <point x="468" y="217" type="line"/>
      <point x="401" y="0" type="line"/>
      <point x="507" y="0" type="line"/>
      <point x="570" y="130" type="line"/>
      <point x="539" y="186" type="line"/>
      <point x="531" y="52"/>
      <point x="548" y="-14"/>
      <point x="755" y="-14" type="curve" smooth="yes"/>
      <point x="950" y="-14"/>
      <point x="1052" y="64"/>
      <point x="1052" y="197" type="curve" smooth="yes"/>
      <point x="1052" y="290"/>
      <point x="966" y="342"/>
      <point x="778" y="408" type="curve"/>
      <point x="784" y="355" type="line"/>
      <point x="1063" y="568" type="line"/>
      <point x="1104" y="710" type="line"/>
      <point x="547" y="710" type="line" smooth="yes"/>
      <point x="297" y="710"/>
      <point x="205" y="612"/>
      <point x="161" y="472" type="curve" smooth="yes"/>
      <point x="56" y="137" type="line" smooth="yes"/>
      <point x="48" y="108"/>
      <point x="19" y="101"/>
      <point x="-17" y="101" type="curve" smooth="yes"/>
      <point x="-31" y="101" type="line"/>
      <point x="-60" y="0" type="line"/>
      <point x="297" y="0" type="line"/>
      <point x="439" y="463" type="line" smooth="yes"/>
      <point x="469" y="562"/>
      <point x="514" y="606"/>
      <point x="665" y="606" type="curve"/>
      <point x="871" y="606" type="line"/>
      <point x="847" y="619" type="line"/>
      <point x="632" y="449" type="line"/>
      <point x="604" y="355" type="line"/>
      <point x="724" y="316"/>
      <point x="758" y="289"/>
      <point x="758" y="230" type="curve" smooth="yes"/>
      <point x="758" y="172"/>
      <point x="736" y="87"/>
      <point x="663" y="87" type="curve" smooth="yes"/>
      <point x="593" y="87"/>
      <point x="588" y="150"/>
    </contour>
  </outline>
</glyph>
<glyph name="ohorntilde" format="2">
  <advance width="963"/>
  <unicode hex="1EE1"/>
  <outline>
    <contour>
      <point x="595" y="615" type="curve" smooth="yes"/>
      <point x="689" y="615"/>
      <point x="752" y="675"/>
      <point x="808" y="851" type="curve"/>
      <point x="705" y="876" type="line"/>
      <point x="672" y="798"/>
      <point x="656" y="766"/>
      <point x="621" y="766" type="curve" smooth="yes"/>
      <point x="556" y="766"/>
      <point x="566" y="868"/>
      <point x="421" y="868" type="curve" smooth="yes"/>
      <point x="317" y="868"/>
      <point x="269" y="805"/>
      <point x="208" y="637" type="curve"/>
      <point x="313" y="611" type="line"/>
      <point x="345" y="687"/>
      <point x="356" y="720"/>
      <point x="390" y="720" type="curve" smooth="yes"/>
      <point x="456" y="720"/>
      <point x="440" y="615"/>
    </contour>
    <component base="ohorn"/>
  </outline>
</glyph>
<glyph name="uni27F7" format="2">
  <advance width="1641"/>
  <unicode hex="27F7"/>
  <outline>
    <contour>
      <point x="1245" y="305" type="line"/>
      <point x="1067" y="152" type="line"/>
      <point x="1102" y="109" type="line"/>
      <point x="1561" y="333" type="line"/>
      <point x="1561" y="373" type="line"/>
      <point x="1102" y="597" type="line"/>
      <point x="1067" y="554" type="line"/>
      <point x="1245" y="401" type="line"/>
      <point x="395" y="401" type="line"/>
      <point x="573" y="554" type="line"/>
      <point x="539" y="597" type="line"/>
      <point x="79" y="373" type="line"/>
      <point x="79" y="333" type="line"/>
      <point x="539" y="109" type="line"/>
      <point x="573" y="152" type="line"/>
      <point x="395" y="305" type="line"/>
    </contour>
  </outline>
</glyph>
<glyph name="one.den" format="2">
  <advance width="592"/>
  <unicode hex="E403"/>
  <outline>
    <contour>
      <point x="366" y="99" type="curve" smooth="yes"/>
      <point x="467" y="426" type="line"/>
      <point x="290" y="426" type="line"/>
      <point x="253" y="368"/>
      <point x="204" y="354"/>
      <point x="106" y="350" type="curve"/>
      <point x="81" y="261" type="line"/>
      <point x="162" y="260"/>
      <point x="216" y="279"/>
      <point x="251" y="343" type="curve"/>
      <point x="261" y="350"/>
      <point x="253" y="358"/>
      <point x="241" y="343" type="curve"/>
      <point x="165" y="99" type="line" smooth="yes"/>
      <point x="158" y="77"/>
      <point x="127" y="73"/>
      <point x="74" y="73" type="curve" smooth="yes"/>
      <point x="41" y="73" type="line"/>
      <point x="20" y="0" type="line"/>
      <point x="448" y="0" type="line"/>
      <point x="468" y="73" type="line"/>
      <point x="446" y="73" type="line" smooth="yes"/>
      <point x="387" y="73"/>
      <point x="358" y="77"/>
    </contour>
  </outline>
</glyph>
<glyph name="five.den" format="2">
  <advance width="594"/>
  <unicode hex="E407"/>
  <outline>
    <contour>
      <point x="226" y="-6" type="curve" smooth="yes"/>
      <point x="69" y="-6"/>
      <point x="15" y="48"/>
      <point x="-7" y="87" type="curve"/>
      <point x="80" y="128" type="line"/>
      <point x="95" y="106"/>
      <point x="128" y="64"/>
      <point x="214" y="64" type="curve" smooth="yes"/>
      <point x="293" y="64"/>
      <point x="312" y="110"/>
      <point x="312" y="157" type="curve" smooth="yes"/>
      <point x="312" y="193"/>
      <point x="299" y="212"/>
      <point x="247" y="212" type="curve" smooth="yes"/>
      <point x="201" y="212"/>
      <point x="176" y="195"/>
      <point x="156" y="180" type="curve"/>
      <point x="80" y="180" type="line"/>
      <point x="154" y="426" type="line"/>
      <point x="512" y="426" type="line"/>
      <point x="467" y="320" type="line"/>
      <point x="166" y="320" type="line"/>
      <point x="224" y="412" type="line"/>
      <point x="163" y="212" type="line"/>
      <point x="155" y="202"/>
      <point x="141" y="200"/>
      <point x="145" y="208" type="curve"/>
      <point x="180" y="246"/>
      <point x="228" y="272"/>
      <point x="311" y="272" type="curve" smooth="yes"/>
      <point x="426" y="272"/>
      <point x="483" y="236"/>
      <point x="483" y="159" type="curve" smooth="yes"/>
      <point x="483" y="50"/>
      <point x="392" y="-6"/>
    </contour>
  </outline>
</glyph>
<glyph name="at.uc" format="2">
  <advance width="1219"/>
  <outline>
    <contour>
      <point x="499" y="149" type="curve" smooth="yes"/>
      <point x="583" y="149"/>
      <point x="619" y="189"/>
      <point x="706" y="269" type="curve"/>
      <point x="671" y="306" type="line"/>
      <point x="618" y="256"/>
      <point x="586" y="221"/>
      <point x="547" y="221" type="curve" smooth="yes"/>
      <point x="519" y="221"/>
      <point x="509" y="234"/>
      <point x="509" y="259" type="curve" smooth="yes"/>
      <point x="509" y="328"/>
      <point x="569" y="502"/>
      <point x="663" y="502" type="curve" smooth="yes"/>
      <point x="708" y="502"/>
      <point x="719" y="484"/>
      <point x="723" y="441" type="curve"/>
      <point x="774" y="460" type="line"/>
      <point x="769" y="531"/>
      <point x="733" y="574"/>
      <point x="622" y="574" type="curve" smooth="yes"/>
      <point x="452" y="574"/>
      <point x="329" y="434"/>
      <point x="329" y="288" type="curve" smooth="yes"/>
      <point x="329" y="203"/>
      <point x="384" y="149"/>
    </contour>
    <contour>
      <point x="570" y="-66" type="curve" smooth="yes"/>
      <point x="688" y="-66"/>
      <point x="805" y="-46"/>
      <point x="878" y="-22" type="curve"/>
      <point x="858" y="67" type="line"/>
      <point x="798" y="50"/>
      <point x="692" y="28"/>
      <point x="577" y="28" type="curve" smooth="yes"/>
      <point x="337" y="28"/>
      <point x="205" y="133"/>
      <point x="205" y="292" type="curve" smooth="yes"/>
      <point x="205" y="545"/>
      <point x="423" y="687"/>
      <point x="701" y="687" type="curve" smooth="yes"/>
      <point x="946" y="687"/>
      <point x="1047" y="611"/>
      <point x="1047" y="476" type="curve" smooth="yes"/>
      <point x="1047" y="352"/>
      <point x="992" y="236"/>
      <point x="893" y="236" type="curve" smooth="yes"/>
      <point x="851" y="236"/>
      <point x="832" y="248"/>
      <point x="832" y="275" type="curve" smooth="yes"/>
      <point x="832" y="291"/>
      <point x="836" y="309"/>
      <point x="851" y="341" type="curve"/>
      <point x="962" y="568" type="line"/>
      <point x="825" y="568" type="line"/>
      <point x="756" y="493" type="line"/>
      <point x="741" y="481" type="line"/>
      <point x="632" y="251" type="line"/>
      <point x="656" y="247" type="line"/>
      <point x="700" y="182"/>
      <point x="763" y="155"/>
      <point x="875" y="155" type="curve" smooth="yes"/>
      <point x="1067" y="155"/>
      <point x="1192" y="287"/>
      <point x="1192" y="476" type="curve" smooth="yes"/>
      <point x="1192" y="662"/>
      <point x="1043" y="781"/>
      <point x="702" y="781" type="curve" smooth="yes"/>
      <point x="347" y="781"/>
      <point x="61" y="591"/>
      <point x="61" y="292" type="curve" smooth="yes"/>
      <point x="61" y="77"/>
      <point x="238" y="-66"/>
    </contour>
  </outline>
</glyph>
<glyph name="cedi.proportional" format="2">
  <advance width="871"/>
  <outline>
    <contour>
      <point x="445" y="10" type="curve" smooth="yes"/>
      <point x="624" y="10"/>
      <point x="730" y="86"/>
      <point x="807" y="233" type="curve"/>
      <point x="695" y="282" type="line"/>
      <point x="631" y="168"/>
      <point x="561" y="107"/>
      <point x="463" y="107" type="curve" smooth="yes"/>
      <point x="343" y="107"/>
      <point x="304" y="143"/>
      <point x="304" y="243" type="curve" smooth="yes"/>
      <point x="304" y="379"/>
      <point x="351" y="610"/>
      <point x="566" y="610" type="curve" smooth="yes"/>
      <point x="702" y="610"/>
      <point x="735" y="569"/>
      <point x="767" y="546" type="curve"/>
      <point x="771" y="569"/>
      <point x="771" y="640"/>
      <point x="694" y="648" type="curve"/>
      <point x="639" y="462" type="line"/>
      <point x="844" y="462" type="line"/>
      <point x="895" y="626" type="line"/>
      <point x="855" y="647"/>
      <point x="760" y="700"/>
      <point x="541" y="700" type="curve" smooth="yes"/>
      <point x="191" y="700"/>
      <point x="32" y="514"/>
      <point x="32" y="304" type="curve" smooth="yes"/>
      <point x="32" y="128"/>
      <point x="177" y="10"/>
    </contour>
    <contour>
      <point x="556" y="790" type="line"/>
      <point x="523" y="678" type="line"/>
      <point x="550" y="669" type="line"/>
      <point x="361" y="51" type="line"/>
      <point x="327" y="37" type="line"/>
      <point x="279" y="-120" type="line"/>
      <point x="414" y="-120" type="line"/>
      <point x="462" y="39" type="line"/>
      <point x="424" y="47" type="line"/>
      <point x="615" y="672" type="line"/>
      <point x="658" y="680" type="line"/>
      <point x="691" y="790" type="line"/>
    </contour>
  </outline>
</glyph>
<glyph name="circumflex_hook.uc" format="2">
  <advance width="615"/>
  <anchor x="331" y="694" name="_top"/>
  <outline>
    <contour>
      <point x="473" y="1054" type="line"/>
      <point x="505" y="1164"/>
      <point x="616" y="1193"/>
      <point x="735" y="1193" type="curve" smooth="yes"/>
      <point x="898" y="1193"/>
      <point x="972" y="1150"/>
      <point x="972" y="1073" type="curve" smooth="yes"/>
      <point x="972" y="980"/>
      <point x="874" y="939"/>
      <point x="661" y="939" type="curve"/>
      <point x="770" y="989" type="line"/>
      <point x="740" y="888" type="line"/>
      <point x="592" y="888" type="line"/>
      <point x="625" y="999" type="line"/>
      <point x="755" y="1001"/>
      <point x="791" y="1026"/>
      <point x="791" y="1069" type="curve" smooth="yes"/>
      <point x="791" y="1096"/>
      <point x="770" y="1106"/>
      <point x="730" y="1106" type="curve" smooth="yes"/>
      <point x="684" y="1106"/>
      <point x="660" y="1090"/>
      <point x="645" y="1054" type="curve"/>
    </contour>
    <component base="circumflex.uc"/>
  </outline>
</glyph>
<glyph name="dollar.proportional" format="2">
  <advance width="811"/>
  <outline>
    <contour>
      <point x="368" y="14" type="curve" smooth="yes"/>
      <point x="596" y="14"/>
      <point x="751" y="84"/>
      <point x="751" y="264" type="curve" smooth="yes"/>
      <point x="751" y="381"/>
      <point x="656" y="403"/>
      <point x="473" y="459" type="curve" smooth="yes"/>
      <point x="376" y="485"/>
      <point x="308" y="492"/>
      <point x="308" y="543" type="curve" smooth="yes"/>
      <point x="308" y="589"/>
      <point x="351" y="613"/>
      <point x="468" y="613" type="curve" smooth="yes"/>
      <point x="587" y="613"/>
      <point x="649" y="599"/>
      <point x="696" y="577" type="curve"/>
      <point x="708" y="577"/>
      <point x="671" y="623"/>
      <point x="631" y="622" type="curve"/>
      <point x="600" y="525" type="line"/>
      <point x="783" y="525" type="line"/>
      <point x="819" y="638" type="line"/>
      <point x="769" y="663"/>
      <point x="656" y="697"/>
      <point x="481" y="697" type="curve" smooth="yes"/>
      <point x="215" y="697"/>
      <point x="88" y="611"/>
      <point x="88" y="463" type="curve" smooth="yes"/>
      <point x="88" y="350"/>
      <point x="181" y="306"/>
      <point x="319" y="269" type="curve" smooth="yes"/>
      <point x="463" y="228"/>
      <point x="532" y="229"/>
      <point x="532" y="172" type="curve" smooth="yes"/>
      <point x="532" y="126"/>
      <point x="490" y="99"/>
      <point x="371" y="99" type="curve" smooth="yes"/>
      <point x="251" y="99"/>
      <point x="133" y="117"/>
      <point x="84" y="144" type="curve"/>
      <point x="84" y="125"/>
      <point x="87" y="95"/>
      <point x="168" y="95" type="curve"/>
      <point x="206" y="214" type="line"/>
      <point x="15" y="214" type="line"/>
      <point x="-28" y="75" type="line"/>
      <point x="33" y="49"/>
      <point x="179" y="14"/>
    </contour>
    <contour>
      <point x="478" y="787" type="line"/>
      <point x="435" y="646" type="line"/>
      <point x="465" y="626" type="line"/>
      <point x="295" y="84" type="line"/>
      <point x="254" y="64" type="line"/>
      <point x="200" y="-117" type="line"/>
      <point x="339" y="-117" type="line"/>
      <point x="393" y="63" type="line"/>
      <point x="366" y="86" type="line"/>
      <point x="535" y="629" type="line"/>
      <point x="577" y="651" type="line"/>
      <point x="617" y="787" type="line"/>
    </contour>
  </outline>
</glyph>
<glyph name="florin" format="2">
  <advance width="686"/>
  <outline>
    <contour>
      <point x="170" y="565" type="line"/>
      <point x="133" y="481" type="line"/>
      <point x="644" y="481" type="line"/>
      <point x="681" y="565" type="line"/>
    </contour>
    <contour>
      <point x="260" y="-35" type="curve" smooth="yes"/>
      <point x="543" y="631" type="line" smooth="yes"/>
      <point x="565" y="678"/>
      <point x="579" y="698"/>
      <point x="649" y="698" type="curve" smooth="yes"/>
      <point x="698" y="698"/>
      <point x="734" y="689"/>
      <point x="760" y="682" type="curve"/>
      <point x="789" y="763" type="line"/>
      <point x="761" y="774"/>
      <point x="702" y="790"/>
      <point x="609" y="790" type="curve" smooth="yes"/>
      <point x="440" y="790"/>
      <point x="363" y="755"/>
      <point x="326" y="665" type="curve" smooth="yes"/>
      <point x="8" y="-93" type="line" smooth="yes"/>
      <point x="-13" y="-142"/>
      <point x="-33" y="-158"/>
      <point x="-81" y="-158" type="curve" smooth="yes"/>
      <point x="-110" y="-158"/>
      <point x="-131" y="-154"/>
      <point x="-157" y="-145" type="curve"/>
      <point x="-188" y="-230" type="line"/>
      <point x="-164" y="-238"/>
      <point x="-120" y="-250"/>
      <point x="-47" y="-250" type="curve" smooth="yes"/>
      <point x="109" y="-250"/>
      <point x="193" y="-202"/>
    </contour>
  </outline>
</glyph>
<glyph name="grave.uc" format="2">
  <advance width="613"/>
  <anchor x="322" y="694" name="_top"/>
  <outline>
    <contour>
      <point x="405" y="778" type="line"/>
      <point x="263" y="802" type="line" smooth="yes"/>
      <point x="173" y="822"/>
      <point x="123" y="855"/>
      <point x="123" y="916" type="curve" smooth="yes"/>
      <point x="123" y="966"/>
      <point x="163" y="1016"/>
      <point x="245" y="1016" type="curve" smooth="yes"/>
      <point x="323" y="1016"/>
      <point x="358" y="982"/>
      <point x="394" y="932" type="curve" smooth="yes"/>
      <point x="476" y="822" type="line"/>
      <point x="471" y="778" type="line"/>
    </contour>
  </outline>
</glyph>
<glyph name="hook.uc" format="2">
  <advance width="613"/>
  <anchor x="277" y="679" name="_top"/>
  <outline>
    <contour>
      <point x="30" y="950" type="line"/>
      <point x="67" y="1065"/>
      <point x="199" y="1101"/>
      <point x="326" y="1101" type="curve" smooth="yes"/>
      <point x="511" y="1101"/>
      <point x="591" y="1056"/>
      <point x="591" y="968" type="curve" smooth="yes"/>
      <point x="591" y="843"/>
      <point x="443" y="826"/>
      <point x="256" y="819" type="curve"/>
      <point x="358" y="878" type="line"/>
      <point x="327" y="777" type="line"/>
      <point x="174" y="777" type="line"/>
      <point x="208" y="890" type="line"/>
      <point x="360" y="894"/>
      <point x="395" y="915"/>
      <point x="395" y="964" type="curve" smooth="yes"/>
      <point x="395" y="994"/>
      <point x="377" y="1009"/>
      <point x="318" y="1009" type="curve" smooth="yes"/>
      <point x="266" y="1009"/>
      <point x="233" y="995"/>
      <point x="217" y="950" type="curve"/>
    </contour>
  </outline>
</glyph>
<glyph name="kgreenlandic" format="2">
  <advance width="900"/>
  <outline>
    <contour>
      <point x="605" y="406" type="line"/>
      <point x="736" y="140" type="line" smooth="yes"/>
      <point x="744" y="123"/>
      <point x="754" y="118"/>
      <point x="787" y="118" type="curve" smooth="yes"/>
      <point x="806" y="118"/>
      <point x="826" y="118"/>
      <point x="845" y="118" type="curve"/>
      <point x="813" y="0" type="line"/>
      <point x="745" y="0"/>
      <point x="676" y="0"/>
      <point x="608" y="0" type="curve" smooth="yes"/>
      <point x="534" y="0"/>
      <point x="513" y="10"/>
      <point x="491" y="59" type="curve" smooth="yes"/>
      <point x="389" y="286" type="line"/>
      <point x="396" y="312" type="line"/>
      <point x="490" y="396"/>
      <point x="585" y="480"/>
      <point x="678" y="565" type="curve"/>
      <point x="944" y="565" type="line"/>
      <point x="944" y="550" type="line"/>
      <point x="809" y="480"/>
      <point x="674" y="410"/>
      <point x="540" y="340" type="curve"/>
    </contour>
    <contour>
      <point x="279" y="0" type="line"/>
      <point x="453" y="572" type="line"/>
      <point x="121" y="572" type="line"/>
      <point x="94" y="476" type="line"/>
      <point x="103" y="474" type="line" smooth="yes"/>
      <point x="137" y="469"/>
      <point x="157" y="464"/>
      <point x="154" y="455" type="curve" smooth="yes"/>
      <point x="15" y="0" type="line"/>
    </contour>
  </outline>
</glyph>
<glyph name="nine.lintab" format="2">
  <advance width="686"/>
  <outline>
    <contour>
      <point x="403" y="735" type="curve" smooth="yes"/>
      <point x="586" y="735"/>
      <point x="670" y="662"/>
      <point x="670" y="510" type="curve" smooth="yes"/>
      <point x="670" y="253"/>
      <point x="511" y="-16"/>
      <point x="-20" y="-18" type="curve"/>
      <point x="-6" y="85" type="line"/>
      <point x="233" y="99"/>
      <point x="347" y="128"/>
      <point x="419" y="396" type="curve" smooth="yes"/>
      <point x="446" y="491"/>
      <point x="457" y="565"/>
      <point x="457" y="599" type="curve" smooth="yes"/>
      <point x="457" y="630"/>
      <point x="440" y="642"/>
      <point x="397" y="642" type="curve" smooth="yes"/>
      <point x="348" y="642"/>
      <point x="329" y="608"/>
      <point x="297" y="491" type="curve" smooth="yes"/>
      <point x="283" y="444"/>
      <point x="277" y="414"/>
      <point x="277" y="392" type="curve" smooth="yes"/>
      <point x="277" y="363"/>
      <point x="302" y="353"/>
      <point x="329" y="353" type="curve" smooth="yes"/>
      <point x="367" y="353"/>
      <point x="398" y="374"/>
      <point x="451" y="424" type="curve"/>
      <point x="457" y="403" type="line"/>
      <point x="394" y="328"/>
      <point x="329" y="260"/>
      <point x="216" y="260" type="curve" smooth="yes"/>
      <point x="109" y="260"/>
      <point x="46" y="312"/>
      <point x="46" y="397" type="curve" smooth="yes"/>
      <point x="46" y="563"/>
      <point x="140" y="735"/>
    </contour>
  </outline>
</glyph>
<glyph name="nine.oldtab" format="2">
  <advance width="686"/>
  <outline>
    <contour>
      <point x="-35" y="-22" type="line"/>
      <point x="223" y="-6"/>
      <point x="335" y="50"/>
      <point x="408" y="319" type="curve" smooth="yes"/>
      <point x="436" y="414"/>
      <point x="446" y="486"/>
      <point x="446" y="519" type="curve" smooth="yes"/>
      <point x="446" y="550"/>
      <point x="429" y="562"/>
      <point x="387" y="562" type="curve" smooth="yes"/>
      <point x="337" y="562"/>
      <point x="318" y="527"/>
      <point x="286" y="409" type="curve" smooth="yes"/>
      <point x="273" y="362"/>
      <point x="266" y="333"/>
      <point x="266" y="312" type="curve" smooth="yes"/>
      <point x="266" y="283"/>
      <point x="291" y="273"/>
      <point x="318" y="273" type="curve" smooth="yes"/>
      <point x="356" y="273"/>
      <point x="387" y="294"/>
      <point x="440" y="344" type="curve"/>
      <point x="446" y="323" type="line"/>
      <point x="384" y="248"/>
      <point x="318" y="180"/>
      <point x="206" y="180" type="curve" smooth="yes"/>
      <point x="99" y="180"/>
      <point x="36" y="232"/>
      <point x="36" y="317" type="curve" smooth="yes"/>
      <point x="36" y="483"/>
      <point x="130" y="655"/>
      <point x="392" y="655" type="curve" smooth="yes"/>
      <point x="575" y="655"/>
      <point x="660" y="582"/>
      <point x="660" y="430" type="curve" smooth="yes"/>
      <point x="660" y="173"/>
      <point x="511" y="-119"/>
      <point x="-50" y="-126" type="curve"/>
    </contour>
  </outline>
</glyph>
<glyph name="one.lintab" format="2">
  <advance width="686"/>
  <outline>
    <contour>
      <point x="436" y="132" type="curve" smooth="yes"/>
      <point x="615" y="710" type="line"/>
      <point x="393" y="710" type="line"/>
      <point x="337" y="663"/>
      <point x="275" y="635"/>
      <point x="130" y="633" type="curve"/>
      <point x="91" y="493" type="line"/>
      <point x="216" y="492"/>
      <point x="292" y="515"/>
      <point x="357" y="634" type="curve"/>
      <point x="331" y="629" type="line"/>
      <point x="176" y="132" type="line" smooth="yes"/>
      <point x="164" y="92"/>
      <point x="110" y="85"/>
      <point x="36" y="85" type="curve" smooth="yes"/>
      <point x="-10" y="85" type="line"/>
      <point x="-35" y="0" type="line"/>
      <point x="545" y="0" type="line"/>
      <point x="571" y="85" type="line"/>
      <point x="544" y="85" type="line"/>
      <point x="470" y="85"/>
      <point x="425" y="92"/>
    </contour>
  </outline>
</glyph>
<glyph name="one.oldtab" format="2">
  <advance width="686"/>
  <outline>
    <contour>
      <point x="454" y="131" type="curve" smooth="yes"/>
      <point x="611" y="645" type="line"/>
      <point x="389" y="645" type="line"/>
      <point x="332" y="600"/>
      <point x="270" y="572"/>
      <point x="125" y="571" type="curve"/>
      <point x="86" y="431" type="line"/>
      <point x="212" y="430"/>
      <point x="287" y="452"/>
      <point x="352" y="570" type="curve"/>
      <point x="327" y="564" type="line"/>
      <point x="195" y="131" type="line" smooth="yes"/>
      <point x="183" y="91"/>
      <point x="129" y="84"/>
      <point x="56" y="84" type="curve" smooth="yes"/>
      <point x="8" y="84" type="line"/>
      <point x="-17" y="0" type="line"/>
      <point x="563" y="0" type="line"/>
      <point x="589" y="84" type="line"/>
      <point x="563" y="84" type="line"/>
      <point x="489" y="84"/>
      <point x="442" y="91"/>
    </contour>
  </outline>
</glyph>
<glyph name="ringhalfright" format="2">
  <advance width="613"/>
  <anchor x="328" y="566" name="_top"/>
  <outline>
    <contour>
      <point x="310" y="610" type="line"/>
      <point x="447" y="610"/>
      <point x="533" y="678"/>
      <point x="533" y="769" type="curve" smooth="yes"/>
      <point x="533" y="854"/>
      <point x="456" y="910"/>
      <point x="323" y="910" type="curve"/>
      <point x="319" y="827" type="line"/>
      <point x="376" y="827"/>
      <point x="403" y="805"/>
      <point x="403" y="770" type="curve" smooth="yes"/>
      <point x="403" y="734"/>
      <point x="381" y="693"/>
      <point x="315" y="693" type="curve"/>
    </contour>
  </outline>
</glyph>
<glyph name="six.lintab" format="2">
  <advance width="685"/>
  <outline>
    <contour>
      <point x="301" y="-10" type="curve" smooth="yes"/>
      <point x="557" y="-10"/>
      <point x="643" y="165"/>
      <point x="643" y="334" type="curve" smooth="yes"/>
      <point x="643" y="421"/>
      <point x="579" y="474"/>
      <point x="471" y="474" type="curve" smooth="yes"/>
      <point x="359" y="474"/>
      <point x="292" y="406"/>
      <point x="229" y="331" type="curve"/>
      <point x="235" y="311" type="line"/>
      <point x="288" y="360"/>
      <point x="319" y="381"/>
      <point x="357" y="381" type="curve" smooth="yes"/>
      <point x="384" y="381"/>
      <point x="412" y="371"/>
      <point x="412" y="341" type="curve" smooth="yes"/>
      <point x="412" y="319"/>
      <point x="405" y="288"/>
      <point x="392" y="240" type="curve" smooth="yes"/>
      <point x="357" y="119"/>
      <point x="337" y="83"/>
      <point x="288" y="83" type="curve" smooth="yes"/>
      <point x="246" y="83"/>
      <point x="229" y="95"/>
      <point x="229" y="125" type="curve" smooth="yes"/>
      <point x="229" y="162"/>
      <point x="239" y="213"/>
      <point x="266" y="308" type="curve" smooth="yes"/>
      <point x="340" y="575"/>
      <point x="449" y="632"/>
      <point x="691" y="648" type="curve"/>
      <point x="706" y="751" type="line"/>
      <point x="165" y="745"/>
      <point x="16" y="431"/>
      <point x="16" y="219" type="curve" smooth="yes"/>
      <point x="16" y="69"/>
      <point x="112" y="-10"/>
    </contour>
  </outline>
</glyph>
<glyph name="six.oldprop" format="2">
  <advance width="772"/>
  <outline>
    <contour>
      <point x="773" y="647" type="curve"/>
      <point x="771" y="751" type="line"/>
      <point x="237" y="732"/>
      <point x="22" y="465"/>
      <point x="22" y="204" type="curve" smooth="yes"/>
      <point x="22" y="72"/>
      <point x="132" y="-10"/>
      <point x="330" y="-10" type="curve" smooth="yes"/>
      <point x="613" y="-10"/>
      <point x="733" y="129"/>
      <point x="733" y="309" type="curve" smooth="yes"/>
      <point x="733" y="409"/>
      <point x="653" y="474"/>
      <point x="519" y="474" type="curve" smooth="yes"/>
      <point x="392" y="474"/>
      <point x="328" y="411"/>
      <point x="258" y="331" type="curve"/>
      <point x="260" y="295" type="line"/>
      <point x="330" y="363"/>
      <point x="369" y="381"/>
      <point x="420" y="381" type="curve" smooth="yes"/>
      <point x="477" y="381"/>
      <point x="493" y="360"/>
      <point x="493" y="321" type="curve" smooth="yes"/>
      <point x="493" y="294"/>
      <point x="486" y="240"/>
      <point x="468" y="190" type="curve" smooth="yes"/>
      <point x="445" y="135"/>
      <point x="405" y="83"/>
      <point x="341" y="83" type="curve" smooth="yes"/>
      <point x="280" y="83"/>
      <point x="256" y="112"/>
      <point x="256" y="167" type="curve" smooth="yes"/>
      <point x="256" y="245"/>
      <point x="276" y="355"/>
      <point x="340" y="449" type="curve" smooth="yes"/>
      <point x="413" y="555"/>
      <point x="546" y="642"/>
    </contour>
  </outline>
</glyph>
<glyph name="three.midprop" format="2">
  <advance width="738"/>
  <outline>
    <contour>
      <point x="393" y="336" type="line"/>
      <point x="565" y="345"/>
      <point x="724" y="369"/>
      <point x="724" y="533" type="curve" smooth="yes"/>
      <point x="724" y="640"/>
      <point x="611" y="697"/>
      <point x="414" y="697" type="curve" smooth="yes"/>
      <point x="300" y="697"/>
      <point x="212" y="677"/>
      <point x="160" y="662" type="curve"/>
      <point x="106" y="483" type="line"/>
      <point x="296" y="483" type="line"/>
      <point x="338" y="622" type="line"/>
      <point x="299" y="618"/>
      <point x="278" y="607"/>
      <point x="270" y="588" type="curve"/>
      <point x="289" y="594"/>
      <point x="320" y="604"/>
      <point x="386" y="604" type="curve" smooth="yes"/>
      <point x="450" y="604"/>
      <point x="483" y="590"/>
      <point x="483" y="546" type="curve" smooth="yes"/>
      <point x="483" y="473"/>
      <point x="437" y="384"/>
      <point x="313" y="384" type="curve"/>
      <point x="206" y="384" type="line"/>
      <point x="177" y="281" type="line"/>
      <point x="265" y="281" type="line"/>
      <point x="372" y="281"/>
      <point x="412" y="253"/>
      <point x="412" y="205" type="curve" smooth="yes"/>
      <point x="412" y="131"/>
      <point x="393" y="44"/>
      <point x="271" y="44" type="curve" smooth="yes"/>
      <point x="148" y="44"/>
      <point x="116" y="129"/>
      <point x="98" y="172" type="curve"/>
      <point x="-39" y="130" type="line"/>
      <point x="-11" y="41"/>
      <point x="55" y="-55"/>
      <point x="291" y="-55" type="curve" smooth="yes"/>
      <point x="541" y="-55"/>
      <point x="664" y="17"/>
      <point x="664" y="168" type="curve" smooth="yes"/>
      <point x="664" y="262"/>
      <point x="569" y="319"/>
      <point x="390" y="332" type="curve"/>
      <point x="427" y="305" type="line"/>
      <point x="442" y="358" type="line"/>
    </contour>
  </outline>
</glyph>
<glyph name="uni20B8.proportional" format="2">
  <advance width="895"/>
  <outline>
    <contour>
      <point x="263" y="137" type="line" smooth="yes"/>
      <point x="253" y="108"/>
      <point x="220" y="101"/>
      <point x="183" y="101" type="curve" smooth="yes"/>
      <point x="161" y="101" type="line"/>
      <point x="132" y="0" type="line"/>
      <point x="540" y="0" type="line"/>
      <point x="569" y="101" type="line"/>
      <point x="546" y="101" type="line" smooth="yes"/>
      <point x="510" y="101"/>
      <point x="479" y="108"/>
      <point x="489" y="137" type="curve" smooth="yes"/>
      <point x="588" y="452" type="line"/>
      <point x="629" y="452" type="line" smooth="yes"/>
      <point x="698" y="452"/>
      <point x="715" y="435"/>
      <point x="708" y="399" type="curve" smooth="yes"/>
      <point x="686" y="289" type="line"/>
      <point x="812" y="289" type="line"/>
      <point x="890" y="547" type="line"/>
      <point x="115" y="547" type="line"/>
      <point x="37" y="289" type="line"/>
      <point x="162" y="289" type="line"/>
      <point x="212" y="399" type="line" smooth="yes"/>
      <point x="228" y="435"/>
      <point x="256" y="452"/>
      <point x="325" y="452" type="curve" smooth="yes"/>
      <point x="362" y="452" type="line"/>
    </contour>
    <contour>
      <point x="172" y="751" type="line"/>
      <point x="143" y="649" type="line"/>
      <point x="926" y="649" type="line"/>
      <point x="956" y="751" type="line"/>
    </contour>
  </outline>
</glyph>
<glyph name="zero.midprop" format="2">
  <advance width="840"/>
  <outline>
    <contour>
      <point x="357" y="-11" type="curve" smooth="yes"/>
      <point x="684" y="-11"/>
      <point x="807" y="219"/>
      <point x="807" y="451" type="curve" smooth="yes"/>
      <point x="807" y="615"/>
      <point x="664" y="697"/>
      <point x="484" y="697" type="curve" smooth="yes"/>
      <point x="156" y="697"/>
      <point x="34" y="468"/>
      <point x="34" y="236" type="curve" smooth="yes"/>
      <point x="34" y="71"/>
      <point x="176" y="-11"/>
    </contour>
    <contour>
      <point x="361" y="88" type="curve" smooth="yes"/>
      <point x="290" y="88"/>
      <point x="272" y="117"/>
      <point x="272" y="164" type="curve" smooth="yes"/>
      <point x="272" y="209"/>
      <point x="280" y="265"/>
      <point x="308" y="360" type="curve" smooth="yes"/>
      <point x="364" y="554"/>
      <point x="405" y="599"/>
      <point x="479" y="599" type="curve" smooth="yes"/>
      <point x="551" y="599"/>
      <point x="568" y="569"/>
      <point x="568" y="522" type="curve" smooth="yes"/>
      <point x="568" y="477"/>
      <point x="561" y="422"/>
      <point x="533" y="327" type="curve" smooth="yes"/>
      <point x="477" y="132"/>
      <point x="435" y="88"/>
    </contour>
  </outline>
</glyph>
<glyph name="zero.oldtab" format="2">
  <advance width="686"/>
  <outline>
    <contour>
      <point x="283" y="-11" type="curve"/>
      <point x="579" y="-11"/>
      <point x="669" y="278"/>
      <point x="669" y="438" type="curve" smooth="yes"/>
      <point x="669" y="568"/>
      <point x="577" y="655"/>
      <point x="403" y="655" type="curve"/>
      <point x="107" y="655"/>
      <point x="17" y="366"/>
      <point x="17" y="206" type="curve" smooth="yes"/>
      <point x="17" y="76"/>
      <point x="109" y="-11"/>
    </contour>
    <contour>
      <point x="279" y="88" type="curve" smooth="yes"/>
      <point x="238" y="88"/>
      <point x="227" y="97"/>
      <point x="227" y="132" type="curve" smooth="yes"/>
      <point x="227" y="167"/>
      <point x="239" y="224"/>
      <point x="270" y="328" type="curve" smooth="yes"/>
      <point x="326" y="509"/>
      <point x="352" y="556"/>
      <point x="407" y="556" type="curve" smooth="yes"/>
      <point x="448" y="556"/>
      <point x="459" y="547"/>
      <point x="459" y="512" type="curve" smooth="yes"/>
      <point x="459" y="477"/>
      <point x="447" y="420"/>
      <point x="416" y="316" type="curve" smooth="yes"/>
      <point x="360" y="135"/>
      <point x="334" y="88"/>
    </contour>
  </outline>
</glyph>
